<?xml version="1.0" encoding="iso-8859-1"?>
<!-- Generator: Adobe Illustrator 18.1.1, SVG Export Plug-In . SVG Version: 6.00 Build 0)  -->
<svg version="1.1" id="Capa_1" xmlns="http://www.w3.org/2000/svg" xmlns:xlink="http://www.w3.org/1999/xlink" x="0px" y="0px"
	 viewBox="0 0 288.89 288.89" style="enable-background:new 0 0 288.89 288.89;" xml:space="preserve">
<g>
	<path style="fill:#010002;" d="M144.445,0C65.949,0,2.089,63.86,2.089,142.362c0,26.124,16.551,63.224,22.24,75.195
		c0.941,15.126-0.577,32.112-3.329,36.23c-5.602,7.006-6.826,15.605-3.269,23.007c2.17,4.514,7.859,12.096,21.571,12.096
		c13.815,0,42.697-8.474,57.224-13.027c10.661,3.062,32.776,8.849,47.918,8.849c78.497,0,142.357-63.86,142.357-142.357
		C286.802,63.86,222.942,0,144.445,0z M39.303,269.859l-0.027-19.037c0.005,0,0.016,0,0.027,0V269.859z M144.445,246.645
		c-10.269,0-31.465-5.439-42.408-8.866l-5.803-1.817l-5.776,1.876c-9.154,2.975-19.624,6.048-28.822,8.463
		c1.822-14.74,0.914-29.262,0.364-35.474l-0.326-3.579l-1.588-3.204c-7.707-15.518-19.923-45.976-19.923-61.679
		c0-57.502,46.781-104.289,104.283-104.289S248.728,84.86,248.728,142.362S201.947,246.645,144.445,246.645z"/>
</g>
<g>
</g>
<g>
</g>
<g>
</g>
<g>
</g>
<g>
</g>
<g>
</g>
<g>
</g>
<g>
</g>
<g>
</g>
<g>
</g>
<g>
</g>
<g>
</g>
<g>
</g>
<g>
</g>
<g>
</g>
</svg>
